PathFileType	4	(X/Y/Z)	/Users/niels/Desktop/University/Third Semester/Perception and Action/Exam/Gymnastics Motion Tracking/Code for Gym Tracking/Analyzed Data/Webcam_Backflip/id5_3_trajectory_Sports2D/id5_3_trajectory_Sports2D_px_person00.trc
DataRate	CameraRate	NumFrames	NumMarkers	Units	OrigDataRate	OrigDataStartFrame	OrigNumFrames
29.808917197452228	29.808917197452228	10	22	m	29.808917197452228	58	157
Frame#	Time	Hip			RHip			RKnee			RAnkle			RBigToe			RSmallToe			RHeel			LHip			LKnee			LAnkle			LBigToe			LSmallToe			LHeel			Neck			Head			Nose			RShoulder			RElbow			RWrist			LShoulder			LElbow			LWrist		
		X1	Y1	Z1	X2	Y2	Z2	X3	Y3	Z3	X4	Y4	Z4	X5	Y5	Z5	X6	Y6	Z6	X7	Y7	Z7	X8	Y8	Z8	X9	Y9	Z9	X10	Y10	Z10	X11	Y11	Z11	X12	Y12	Z12	X13	Y13	Z13	X14	Y14	Z14	X15	Y15	Z15	X16	Y16	Z16	X17	Y17	Z17	X18	Y18	Z18	X19	Y19	Z19	X20	Y20	Z20	X21	Y21	Z21	X22	Y22	Z22
58	1.9457264957264957	0.946001703969312	-0.3645494713220628	0.0	0.9493425319563742	-0.3608403052603439	0.0	0.930644546413992	-0.26819004609952424	0.0	1.023607533419681	-0.2818411178304088	0.0	1.0368680509702193	-0.24392804565192644	0.0	1.0447808796114044	-0.2507640863352384	0.0	1.0338787856833547	-0.2902591369991195	0.0	0.9340716333442821	-0.3646641485881528	0.0	0.9238246030574894	-0.2764474981704132	0.0	1.0169891956494939	-0.2821680204642549	0.0	1.0260717482548714	-0.2506600461775969	0.0	1.0322569212837163	-0.25616158578035314	0.0	1.0363160189223979	-0.2930451023923812	0.0	0.8217527865094427	-0.3615413966974262	0.0	0.7646543872970496	-0.36895789702482723	0.0	0.7870561231913615	-0.3429970928726116	0.0	0.8378206279084159	-0.34857044124266295	0.0	0.9053976954065882	-0.3146196510712678	0.0	0.9184459033756253	-0.26137428475491503	0.0	0.826136659441683	-0.36655387299853504	0.0	0.880315890457861	-0.33721966591051494	0.0	0.9359304397523572	-0.29739650686753555	0.0
59	1.9792735042735041	0.9481757460593949	-0.3446524096755676	0.0	0.9495842755436259	-0.340460474027964	0.0	0.8974430906970855	-0.2627101234392032	0.0	0.9902712292787978	-0.24502031262183113	0.0	0.9891481889871709	-0.20420979522936106	0.0	0.9983155221989363	-0.20821471468484878	0.0	1.0013937810320557	-0.24865769708594723	0.0	0.9361577171780806	-0.34502034133250314	0.0	0.8944121201914024	-0.2720460521152408	0.0	0.985874741951424	-0.2463664840056314	0.0	0.9802729805224525	-0.21238900960353227	0.0	0.9902188015941755	-0.22370248429901418	0.0	1.0058628792914706	-0.2516482586256572	0.0	0.8331044943062695	-0.379336789159777	0.0	0.7838454416812747	-0.4018205251312883	0.0	0.7969702444963632	-0.3715621488017046	0.0	0.8491957735494653	-0.36230139178647147	0.0	0.9053382457721555	-0.3114422627963042	0.0	0.9089170017970967	-0.26173702794449	0.0	0.838776334483003	-0.3822085478654067	0.0	0.884964877726638	-0.3428553701909921	0.0	0.950864129145781	-0.3093623634905588	0.0
60	2.0128205128205128	0.9470453544609141	-0.3241779816464643	0.0	0.9455626296865862	-0.3204641424281564	0.0	0.8686368599390636	-0.2697278006714809	0.0	0.9486773197542521	-0.22468456941716636	0.0	0.9331897898624179	-0.18764840104676112	0.0	0.942282643784997	-0.18807519013423793	0.0	0.9589999570445861	-0.22305776474844569	0.0	0.9377622841338872	-0.32450006170733053	0.0	0.8713551833766718	-0.2797048585960678	0.0	0.9485892604234362	-0.22536180716916365	0.0	0.9274009161232578	-0.1949216426805888	0.0	0.9402827944953364	-0.21424682966659128	0.0	0.9654195889254651	-0.22493564247249453	0.0	0.8518179222651978	-0.3970430688358324	0.0	0.8136427093511702	-0.4330978232248915	0.0	0.8166135717450282	-0.4021624804053029	0.0	0.8640709645140607	-0.3768518215159082	0.0	0.9020122894308715	-0.3113078851474647	0.0	0.8943940846671573	-0.26848065830865064	0.0	0.8597585713091471	-0.3965998299150499	0.0	0.8962107400331483	-0.3501264735367482	0.0	0.9694190700930453	-0.32738564699065764	0.0
61	2.046367521367521	0.9414987817206303	-0.30582142633488085	0.0	0.936756211794445	-0.30360582688740634	0.0	0.8466891173280235	-0.2869615856440595	0.0	0.902497460117004	-0.2222895707704545	0.0	0.8755755594781082	-0.1953889297949827	0.0	0.8833231969637324	-0.1921272972962723	0.0	0.9103967899222914	-0.21556436058520395	0.0	0.9374783360659004	-0.3059738383544016	0.0	0.8566735239032923	-0.2966447628852003	0.0	0.9086892548661599	-0.220789608075905	0.0	0.8732975834100025	-0.19924427529049826	0.0	0.8873974763786097	-0.22673556426258193	0.0	0.9185179402866489	-0.2153654657968823	0.0	0.8766665061187124	-0.4112268290687757	0.0	0.8525022529068097	-0.4577271331802284	0.0	0.8455274303152184	-0.42973656375299724	0.0	0.8816370725450343	-0.3896143714186944	0.0	0.8969459440000461	-0.3151739905051625	0.0	0.879194393059078	-0.28316569740773345	0.0	0.8875406920557267	-0.4066863249014088	0.0	0.9149873589526933	-0.3580798167108706	0.0	0.9904921131460626	-0.348104192040478	0.0
62	2.0799145299145296	0.9315134753764968	-0.2926501298220746	0.0	0.9237458015874853	-0.29235838601637737	0.0	0.8326698770140996	-0.3114816640661513	0.0	0.8560523382889145	-0.2384211751537107	0.0	0.823042484609068	-0.22699037457585142	0.0	0.828374220236376	-0.22046490632313706	0.0	0.8600355980737694	-0.22755265384331622	0.0	0.9339884961504541	-0.2929006057152929	0.0	0.8505779925629495	-0.31942079442536736	0.0	0.870479143301607	-0.23432824946935502	0.0	0.8238877945102926	-0.2257119366357021	0.0	0.8373074518749626	-0.257782446099956	0.0	0.8693853346872352	-0.22528723338732026	0.0	0.9047540643771893	-0.419224560125976	0.0	0.8965745893302149	-0.47206415159668036	0.0	0.8809332629696727	-0.44949505866747974	0.0	0.9007071236971932	-0.3983520322896717	0.0	0.8918956268621449	-0.32357480613098083	0.0	0.867252438715045	-0.30604149896481625	0.0	0.9182952147387005	-0.410756820559456	0.0	0.9399029585603937	-0.36578163471382025	0.0	1.0118286068921627	-0.3672999112521559	0.0
63	2.1134615384615385	0.9179851664464221	-0.2871973853655156	0.0	0.9078294826983033	-0.2883893961621362	0.0	0.8261914919565416	-0.3403630945892692	0.0	0.814207324533619	-0.27270611393374505	0.0	0.7817246191123918	-0.27992301887512694	0.0	0.7837551864413022	-0.2710542213784494	0.0	0.8131867722440191	-0.259496812742195	0.0	0.9267918091674587	-0.28802855053220827	0.0	0.8516016055250354	-0.3452234905364668	0.0	0.8384715250016477	-0.2666081276183693	0.0	0.7845142071867529	-0.2732355673906563	0.0	0.796023735742294	-0.3034145926867531	0.0	0.8232172975111276	-0.2558049849860434	0.0	0.9323130269974813	-0.42013444277807627	0.0	0.9407417622976684	-0.4749005421004251	0.0	0.9182481818380778	-0.4587715381443602	0.0	0.91972023288311	-0.401850576276696	0.0	0.8884651708691993	-0.3367597098765785	0.0	0.8610711412572788	-0.336322618073683	0.0	0.9473887350336136	-0.40881198936462715	0.0	0.9673062410176435	-0.37198698105002015	0.0	1.0304893371755166	-0.381198145608853	0.0
64	2.147008547008547	0.9022861868439672	-0.29088675010609316	0.0	0.8906595676864912	-0.2926353569714189	0.0	0.8255928256261713	-0.37147600946819653	0.0	0.7819286314914242	-0.32318998992729037	0.0	0.7562774539277358	-0.34879856842900436	0.0	0.7545611524571543	-0.33898802052110866	0.0	0.7755555569039972	-0.31001589313413924	0.0	0.9160670578308235	-0.29238889130639084	0.0	0.8562806817815155	-0.3727381605002803	0.0	0.8152210388398997	-0.31570851412017886	0.0	0.7593228649398134	-0.33772034410322743	0.0	0.7684474472224984	-0.3601199829541822	0.0	0.7854860170789296	-0.3052539456495658	0.0	0.9557331890324026	-0.41500608428576585	0.0	0.9802464587181168	-0.46737168712699967	0.0	0.9525088912743058	-0.45767382404052076	0.0	0.9368023594784166	-0.40045377167637536	0.0	0.8880620113216846	-0.35449819822145395	0.0	0.8620719347790597	-0.372204850658006	0.0	0.9707627489432317	-0.40197879037781975	0.0	0.9918789069041752	-0.37524196966854884	0.0	1.0433313692281083	-0.3879964844120199	0.0
65	2.1805555555555554	0.8857631863835401	-0.3040783066693561	0.0	0.8738903709153617	-0.30559013536444957	0.0	0.8284552441488174	-0.40397313586043804	0.0	0.7629075809547669	-0.3858924326790339	0.0	0.7485797806034468	-0.4258456800193435	0.0	0.7434253671222598	-0.4166907518070845	0.0	0.7517896882280035	-0.3751262127895417	0.0	0.9020931739100595	-0.30561301157318893	0.0	0.8594828477683322	-0.40210571463762546	0.0	0.7995963161661847	-0.37712979637802624	0.0	0.7498774852356574	-0.41203953918093	0.0	0.7563019631791996	-0.424308595908733	0.0	0.7599688702034471	-0.3689889140765727	0.0	0.972217083013113	-0.40613854193691096	0.0	1.0115868648704343	-0.4520386459388406	0.0	0.9797645232883736	-0.4484770325146144	0.0	0.9499830628137872	-0.39586890241410744	0.0	0.891911340904495	-0.37561049760080356	0.0	0.8717636111328898	-0.41023166309239706	0.0	0.9854327893394921	-0.3919840351539944	0.0	1.0079075408162737	-0.3755303993073697	0.0	1.047905066859593	-0.38941965889132574	0.0
66	2.2141025641025642	0.8695834762680034	-0.32645042549741626	0.0	0.8588884869113756	-0.32736094367938784	0.0	0.8324948081247441	-0.4381422289888363	0.0	0.7579912157068937	-0.45531421343846895	0.0	0.756698162976058	-0.503145322699841	0.0	0.7490943475130948	-0.49590832552256775	0.0	0.7435874854852362	-0.44878249233038203	0.0	0.8854322717058362	-0.32710457913454816	0.0	0.8573430028367354	-0.4342778986068642	0.0	0.7888606141484495	-0.4451238494842918	0.0	0.7540944723025482	-0.48821760721521396	0.0	0.7572079553350406	-0.49164457422684965	0.0	0.7472897855206084	-0.44070945342778234	0.0	0.9801386073928098	-0.3963053330754892	0.0	1.0323656104160763	-0.4320545117886683	0.0	0.9976905704028862	-0.43468369591421163	0.0	0.9576013984535509	-0.3903943719305293	0.0	0.9006342726571035	-0.39784899906178534	0.0	0.8913693131306791	-0.4452236326610427	0.0	0.9898392487745676	-0.38126113406813367	0.0	1.0115467291488045	-0.37573259955682714	0.0	1.0437379592990639	-0.390458162191199	0.0
67	2.2476495726495727	0.8550380074629556	-0.3571875287178668	0.0	0.8467375899756647	-0.3574667652340043	0.0	0.8364471525150821	-0.47470736775674677	0.0	0.7648864648845841	-0.5258397811899927	0.0	0.7754164322388672	-0.5750010042217785	0.0	0.7666428563338197	-0.5702744414032253	0.0	0.7490076835964715	-0.5245077064474603	0.0	0.8676719214290208	-0.3564145296685518	0.0	0.8501720747488973	-0.4701315162664123	0.0	0.7820672354398845	-0.5141276052921137	0.0	0.7671319285472209	-0.5599927792064344	0.0	0.7662663274620276	-0.5576915193949583	0.0	0.7454009002502432	-0.5140701082953638	0.0	0.9792538439290646	-0.38839481381256014	0.0	1.0410612302123847	-0.41070904111485534	0.0	1.0055112368342276	-0.42007486183283743	0.0	0.9587282183744783	-0.3865097058198838	0.0	0.9135720417093736	-0.4185608215495872	0.0	0.9196785641356069	-0.471766526600925	0.0	0.9841587199089025	-0.3729407764489367	0.0	1.003484163340823	-0.3800858793477512	0.0	1.0333079895179118	-0.3960797870242525	0.0
